<svg width="131" height="46" viewBox="0 0 131 46" fill="none" xmlns="http://www.w3.org/2000/svg">
<rect x="0.750061" y="0.700012" width="129" height="44" rx="5.5" fill="black"/>
<rect x="0.750061" y="0.700012" width="129" height="44" rx="5.5" stroke="#A6A6A6"/>
<path d="M24.9546 20.9632C24.9667 20.0432 25.217 19.1413 25.6821 18.3412C26.1472 17.5411 26.8121 16.8689 27.6149 16.387C27.1049 15.676 26.4321 15.0908 25.65 14.678C24.8679 14.2652 23.998 14.0361 23.1093 14.009C21.2136 13.8147 19.3758 15.1164 18.4098 15.1164C17.4251 15.1164 15.9378 14.0283 14.3362 14.0604C13.3003 14.0931 12.2907 14.3872 11.4057 14.9141C10.5208 15.441 9.79081 16.1827 9.2868 17.0669C7.10358 20.7573 8.73207 26.181 10.8234 29.164C11.8698 30.6247 13.0927 32.2564 14.6929 32.1985C16.2587 32.1351 16.8435 31.2237 18.7336 31.2237C20.6061 31.2237 21.1548 32.1985 22.7874 32.1617C24.4677 32.1351 25.5263 30.6945 26.5359 29.22C27.2878 28.1792 27.8663 27.0289 28.2501 25.8116C27.2739 25.4086 26.4409 24.7338 25.8548 23.8717C25.2688 23.0095 24.9557 21.9979 24.9546 20.9632Z" fill="white"/>
<path d="M21.8709 12.0471C22.787 10.9734 23.2383 9.59337 23.129 8.20001C21.7294 8.34353 20.4365 8.99661 19.508 10.0291C19.0541 10.5335 18.7064 11.1203 18.4848 11.756C18.2633 12.3917 18.1723 13.0638 18.2169 13.7338C18.917 13.7408 19.6096 13.5927 20.2425 13.3005C20.8754 13.0084 21.4322 12.5798 21.8709 12.0471Z" fill="white"/>
<path d="M37.0411 11.7015H39.1109C40.8995 11.7015 41.7696 12.765 41.7696 14.6942C41.7696 16.6234 40.8907 17.7 39.1109 17.7H37.0411V11.7015ZM38.0386 12.5408V16.8607H39.001C40.1876 16.8607 40.7457 16.1443 40.7457 14.7073C40.7457 13.2615 40.1832 12.5408 39.001 12.5408H38.0386ZM44.9249 12.9759C46.1378 12.9759 46.9859 13.7625 46.9859 15.0677V15.6697C46.9859 17.0189 46.1378 17.7791 44.9249 17.7791C43.6944 17.7791 42.855 17.0276 42.855 15.6741V15.0721C42.855 13.8021 43.7076 12.9759 44.9249 12.9759ZM44.9293 13.7625C44.2349 13.7625 43.8394 14.3426 43.8394 15.1204V15.639C43.8394 16.4168 44.2086 16.9925 44.9293 16.9925C45.6412 16.9925 46.0059 16.4212 46.0059 15.639V15.1204C46.0059 14.3426 45.6236 13.7625 44.9293 13.7625ZM54.149 13.055L52.9273 17.7H51.9341L50.963 14.2723H50.9366L49.983 17.7H48.9854L47.711 13.055H48.7613L49.5084 16.597H49.5523L50.4883 13.055H51.4068L52.3692 16.597H52.4131L53.1734 13.055H54.149ZM55.1158 17.7V13.055H56.0738V13.89H56.1221C56.2408 13.5252 56.5792 12.9847 57.5196 12.9847C58.4556 12.9847 59.084 13.5032 59.084 14.5623V17.7H58.1085V14.848C58.1085 14.1404 57.7393 13.8152 57.19 13.8152C56.4693 13.8152 56.0914 14.369 56.0914 15.1204V17.7H55.1158ZM60.5606 17.7V11.3851H61.5362V17.7H60.5606ZM64.8848 12.9759C66.0977 12.9759 66.9459 13.7625 66.9459 15.0677V15.6697C66.9459 17.0189 66.0977 17.7791 64.8848 17.7791C63.6544 17.7791 62.815 17.0276 62.815 15.6741V15.0721C62.815 13.8021 63.6675 12.9759 64.8848 12.9759ZM64.8892 13.7625C64.1949 13.7625 63.7994 14.3426 63.7994 15.1204V15.639C63.7994 16.4168 64.1685 16.9925 64.8892 16.9925C65.6011 16.9925 65.9659 16.4212 65.9659 15.639V15.1204C65.9659 14.3426 65.5836 13.7625 64.8892 13.7625ZM69.4727 17.7703C68.5718 17.7703 67.9522 17.2166 67.9522 16.3509C67.9522 15.5291 68.5235 14.9754 69.5958 14.9754H70.7691V14.5403C70.7691 14.0086 70.4307 13.7581 69.8946 13.7581C69.3672 13.7581 69.1299 13.9778 69.0552 14.2855H68.128C68.1851 13.5076 68.7696 12.9847 69.9254 12.9847C70.9185 12.9847 71.7403 13.3978 71.7403 14.5535V17.7H70.813V17.098H70.7691C70.5626 17.4539 70.1583 17.7703 69.4727 17.7703ZM69.7759 17.0145C70.3297 17.0145 70.7691 16.6365 70.7691 16.1312V15.6302H69.7496C69.1827 15.6302 68.9322 15.9158 68.9322 16.3026C68.9322 16.7859 69.3365 17.0145 69.7759 17.0145ZM74.7462 12.9935C75.4009 12.9935 75.9019 13.2835 76.0821 13.7537H76.1304V11.3851H77.106V17.7H76.1568V16.9573H76.1085C75.9678 17.4276 75.4097 17.7615 74.733 17.7615C73.6651 17.7615 72.9708 17.0013 72.9708 15.7752V14.9798C72.9708 13.7537 73.6783 12.9935 74.7462 12.9935ZM75.0186 13.7933C74.3682 13.7933 73.9639 14.2767 73.9639 15.1204V15.6302C73.9639 16.4783 74.3726 16.9617 75.0406 16.9617C75.6998 16.9617 76.1304 16.4827 76.1304 15.6917V14.9886C76.1304 14.2723 75.6602 13.7933 75.0186 13.7933ZM82.463 12.9759C83.6758 12.9759 84.524 13.7625 84.524 15.0677V15.6697C84.524 17.0189 83.6758 17.7791 82.463 17.7791C81.2325 17.7791 80.3931 17.0276 80.3931 15.6741V15.0721C80.3931 13.8021 81.2457 12.9759 82.463 12.9759ZM82.4673 13.7625C81.773 13.7625 81.3775 14.3426 81.3775 15.1204V15.639C81.3775 16.4168 81.7466 16.9925 82.4673 16.9925C83.1793 16.9925 83.544 16.4212 83.544 15.639V15.1204C83.544 14.3426 83.1617 13.7625 82.4673 13.7625ZM85.7808 17.7V13.055H86.7388V13.89H86.7872C86.9058 13.5252 87.2442 12.9847 88.1846 12.9847C89.1207 12.9847 89.7491 13.5032 89.7491 14.5623V17.7H88.7735V14.848C88.7735 14.1404 88.4044 13.8152 87.855 13.8152C87.1343 13.8152 86.7564 14.369 86.7564 15.1204V17.7H85.7808ZM93.524 13.0858V11.9256H94.4776V13.0858H95.5191V13.8504H94.4776V16.3157C94.4776 16.8211 94.6666 16.9617 95.1895 16.9617C95.3214 16.9617 95.4971 16.9529 95.5718 16.9442V17.6912C95.4927 17.7044 95.1675 17.7308 94.9478 17.7308C93.8184 17.7308 93.5108 17.3265 93.5108 16.3948V13.8504H92.8033V13.0858H93.524ZM96.7496 17.7V11.3851H97.7208V13.89H97.7691C97.8702 13.5604 98.2481 12.9847 99.1797 12.9847C100.085 12.9847 100.731 13.5076 100.731 14.5667V17.7H99.7598V14.8524C99.7598 14.1448 99.3687 13.8152 98.815 13.8152C98.1163 13.8152 97.7208 14.3646 97.7208 15.1204V17.7H96.7496ZM104.005 17.7791C102.739 17.7791 101.953 17.0013 101.953 15.6917V15.0633C101.953 13.7449 102.814 12.9759 103.948 12.9759C105.112 12.9759 105.934 13.7845 105.934 15.0633V15.6082H102.919V15.8367C102.919 16.5047 103.315 16.9969 104.001 16.9969C104.51 16.9969 104.862 16.7552 104.928 16.4651H105.881C105.824 17.0013 105.257 17.7791 104.005 17.7791ZM102.919 14.971H104.981V14.9095C104.981 14.2108 104.572 13.7449 103.952 13.7449C103.333 13.7449 102.919 14.2108 102.919 14.9095V14.971Z" fill="white"/>
<path d="M38.4561 33.7H36.4258L40.5567 21.7029H42.7891L46.9112 33.7H44.8018L43.7383 30.3777H39.5284L38.4561 33.7ZM41.6817 23.7772H41.6026L39.9766 28.8484H43.2901L41.6817 23.7772ZM52.5144 33.8318C51.3103 33.8318 50.3963 33.2606 49.9041 32.408H49.8338V36.785H47.8826V24.41H49.781V25.7723H49.8513C50.3611 24.8846 51.3103 24.2869 52.5584 24.2869C54.6414 24.2869 56.1267 25.8602 56.1267 28.6375V29.4637C56.1267 32.2234 54.659 33.8318 52.5144 33.8318ZM52.0662 32.2234C53.3055 32.2234 54.1492 31.2303 54.1492 29.3582V28.7078C54.1492 26.9061 53.3582 25.8777 52.031 25.8777C50.6687 25.8777 49.8162 26.9852 49.8162 28.699V29.3582C49.8162 31.116 50.6775 32.2234 52.0662 32.2234ZM62.4331 33.8318C61.229 33.8318 60.3149 33.2606 59.8228 32.408H59.7524V36.785H57.8013V24.41H59.6997V25.7723H59.77C60.2798 24.8846 61.229 24.2869 62.4771 24.2869C64.5601 24.2869 66.0454 25.8602 66.0454 28.6375V29.4637C66.0454 32.2234 64.5776 33.8318 62.4331 33.8318ZM61.9849 32.2234C63.2241 32.2234 64.0679 31.2303 64.0679 29.3582V28.7078C64.0679 26.9061 63.2769 25.8777 61.9497 25.8777C60.5874 25.8777 59.7349 26.9852 59.7349 28.699V29.3582C59.7349 31.116 60.5962 32.2234 61.9849 32.2234ZM70.0888 30.369H72.04C72.1279 31.4061 73.0419 32.2938 74.7382 32.2938C76.2939 32.2938 77.2167 31.5643 77.2167 30.4305C77.2167 29.5164 76.6015 29.0242 75.3183 28.7166L73.3496 28.2244C71.8027 27.8641 70.414 26.9412 70.414 24.9901C70.414 22.6961 72.4179 21.4393 74.747 21.4393C77.0761 21.4393 79.0185 22.6961 79.0624 24.9373H77.1464C77.0585 23.9178 76.2763 23.074 74.7206 23.074C73.3496 23.074 72.4179 23.7244 72.4179 24.8406C72.4179 25.6229 72.9628 26.1854 74.079 26.4402L76.039 26.9236C77.8408 27.3631 79.2119 28.2156 79.2119 30.2547C79.2119 32.6102 77.3046 33.9373 74.5888 33.9373C71.249 33.9373 70.1328 31.9861 70.0888 30.369ZM81.5895 24.41V22.1512H83.5055V24.41H85.3161V25.9744H83.5055V30.9315C83.5055 31.9422 83.8835 32.2234 84.9294 32.2234C85.0964 32.2234 85.2546 32.2234 85.3688 32.2059V33.7C85.2106 33.7264 84.8415 33.7615 84.446 33.7615C82.1872 33.7615 81.5631 32.9529 81.5631 31.0897V25.9744H80.2799V24.41H81.5895ZM90.5853 24.2518C93.2572 24.2518 94.7074 26.1326 94.7074 28.6639V29.4109C94.7074 32.0301 93.266 33.8582 90.5853 33.8582C87.9047 33.8582 86.4457 32.0301 86.4457 29.4109V28.6639C86.4457 26.1414 87.9135 24.2518 90.5853 24.2518ZM90.5853 25.8162C89.1351 25.8162 88.4144 27.0027 88.4144 28.6902V29.4022C88.4144 31.0633 89.1264 32.285 90.5853 32.285C92.0443 32.285 92.7474 31.0721 92.7474 29.4022V28.6902C92.7474 26.994 92.0355 25.8162 90.5853 25.8162ZM96.3556 33.7V24.41H98.3067V25.6317H98.3771C98.6144 25.0516 99.3087 24.2781 100.601 24.2781C100.856 24.2781 101.075 24.2957 101.26 24.3309V26.0535C101.093 26.0096 100.75 25.9832 100.425 25.9832C98.8605 25.9832 98.3331 26.95 98.3331 28.1981V33.7H96.3556ZM105.993 33.8582C103.506 33.8582 101.924 32.2147 101.924 29.4637V28.5233C101.924 25.9305 103.471 24.2518 105.914 24.2518C108.392 24.2518 109.887 25.992 109.887 28.6111V29.4988H103.848V29.7186C103.848 31.283 104.692 32.3201 106.019 32.3201C107.013 32.3201 107.689 31.8279 107.927 31.0281H109.781C109.5 32.5311 108.287 33.8582 105.993 33.8582ZM103.848 28.1365H107.979V28.119C107.979 26.8006 107.162 25.7635 105.923 25.7635C104.666 25.7635 103.848 26.8006 103.848 28.119V28.1365Z" fill="white"/>
</svg>
