<svg width="18" height="18" viewBox="0 0 18 18" fill="none" xmlns="http://www.w3.org/2000/svg">
<path d="M15.0341 7.19954C15.045 6.35629 15.2702 5.5295 15.6888 4.79607C16.1075 4.06265 16.7058 3.44644 17.4283 3.00477C16.9694 2.35297 16.3639 1.81657 15.66 1.43817C14.956 1.05976 14.1731 0.84978 13.3733 0.824897C11.6672 0.646816 10.0132 1.84006 9.14378 1.84006C8.25756 1.84006 6.91898 0.842579 5.47754 0.872064C4.54519 0.902018 3.63653 1.17162 2.84011 1.65459C2.04369 2.13757 1.38667 2.81745 0.933061 3.628C-1.03183 7.01085 0.433805 11.9825 2.31604 14.717C3.25777 16.056 4.35838 17.5517 5.79851 17.4986C7.20777 17.4405 7.7341 16.605 9.43518 16.605C11.1205 16.605 11.6143 17.4986 13.0836 17.4649C14.5958 17.4405 15.5486 16.12 16.4573 14.7683C17.1339 13.8142 17.6546 12.7598 18 11.644C17.1215 11.2745 16.3717 10.656 15.8443 9.86567C15.3169 9.07532 15.0351 8.14807 15.0341 7.19954Z" fill="black"/>
</svg>
