<svg width="131" height="46" viewBox="0 0 131 46" fill="none" xmlns="http://www.w3.org/2000/svg">
<rect x="0.550049" y="0.700012" width="129" height="44" rx="5.5" fill="black"/>
<rect x="0.550049" y="0.700012" width="129" height="44" rx="5.5" stroke="#A6A6A6"/>
<path d="M17.8549 19.6617L8.13965 30.2059C8.14056 30.2078 8.14056 30.2106 8.14147 30.2125C8.43986 31.3574 9.46184 32.2 10.6754 32.2C11.1609 32.2 11.6162 32.0656 12.0068 31.8305L12.0378 31.8118L22.973 25.3593L17.8549 19.6617Z" fill="#EA4335"/>
<path d="M27.6832 17.8662L27.674 17.8597L22.9528 15.0612L17.634 19.9013L22.972 25.3582L27.6676 22.5878C28.4907 22.1324 29.0501 21.245 29.0501 20.2223C29.0501 19.2052 28.4989 18.3225 27.6832 17.8662Z" fill="#FBBC04"/>
<path d="M8.13947 10.1933C8.08107 10.4135 8.05005 10.645 8.05005 10.8838V29.5164C8.05005 29.7552 8.08107 29.9866 8.14038 30.2059L18.1887 19.9314L8.13947 10.1933Z" fill="#4285F4"/>
<path d="M17.9266 20.1999L22.9544 15.0594L12.032 8.58352C11.6351 8.33997 11.1715 8.20001 10.676 8.20001C9.46244 8.20001 8.43864 9.04448 8.14026 10.1904C8.14026 10.1913 8.13934 10.1922 8.13934 10.1931L17.9266 20.1999Z" fill="#34A853"/>
<path d="M43.66 11.91C43.66 12.91 43.3634 13.7067 42.77 14.3C42.1034 15.0067 41.2267 15.36 40.14 15.36C39.1 15.36 38.22 15 37.5 14.28C36.78 13.56 36.42 12.6733 36.42 11.62C36.42 10.5667 36.78 9.68001 37.5 8.96001C38.22 8.24001 39.1 7.88001 40.14 7.88001C40.6667 7.88001 41.1634 7.97335 41.63 8.16001C42.0967 8.34668 42.48 8.61001 42.78 8.95001L42.12 9.61001C41.9 9.34335 41.6134 9.13668 41.26 8.99001C40.9134 8.83668 40.54 8.76001 40.14 8.76001C39.36 8.76001 38.7 9.03001 38.16 9.57001C37.6267 10.1167 37.36 10.8 37.36 11.62C37.36 12.44 37.6267 13.1233 38.16 13.67C38.7 14.21 39.36 14.48 40.14 14.48C40.8534 14.48 41.4467 14.28 41.92 13.88C42.3934 13.48 42.6667 12.93 42.74 12.23H40.14V11.37H43.61C43.6434 11.5567 43.66 11.7367 43.66 11.91ZM48.9579 8.04001V8.92001H45.6979V11.19H48.6379V12.05H45.6979V14.32H48.9579V15.2H44.7779V8.04001H48.9579ZM52.6378 8.92001V15.2H51.7178V8.92001H49.7178V8.04001H54.6378V8.92001H52.6378ZM58.7154 15.2H57.7954V8.04001H58.7154V15.2ZM62.5987 8.92001V15.2H61.6787V8.92001H59.6787V8.04001H64.5987V8.92001H62.5987ZM74.5711 11.62C74.5711 12.68 74.2177 13.5667 73.5111 14.28C72.7977 15 71.9244 15.36 70.8911 15.36C69.8511 15.36 68.9777 15 68.2711 14.28C67.5644 13.5667 67.2111 12.68 67.2111 11.62C67.2111 10.56 67.5644 9.67335 68.2711 8.96001C68.9777 8.24001 69.8511 7.88001 70.8911 7.88001C71.9311 7.88001 72.8044 8.24335 73.5111 8.97001C74.2177 9.68335 74.5711 10.5667 74.5711 11.62ZM68.1511 11.62C68.1511 12.4467 68.4111 13.13 68.9311 13.67C69.4577 14.21 70.1111 14.48 70.8911 14.48C71.6711 14.48 72.3211 14.21 72.8411 13.67C73.3677 13.1367 73.6311 12.4533 73.6311 11.62C73.6311 10.7867 73.3677 10.1033 72.8411 9.57001C72.3211 9.03001 71.6711 8.76001 70.8911 8.76001C70.1111 8.76001 69.4577 9.03001 68.9311 9.57001C68.4111 10.11 68.1511 10.7933 68.1511 11.62ZM76.5768 15.2H75.6568V8.04001H76.7768L80.2568 13.61H80.2968L80.2568 12.23V8.04001H81.1768V15.2H80.2168L76.5768 9.36001H76.5368L76.5768 10.74V15.2Z" fill="white"/>
<path d="M93.5682 31.6097H95.197V20.5982H93.5682V31.6097ZM108.239 24.5646L106.372 29.3388H106.316L104.378 24.5646H102.624L105.529 31.2371L103.873 34.949H105.571L110.05 24.5646H108.239ZM99.0019 30.3589C98.4677 30.3589 97.724 30.0902 97.724 29.4234C97.724 28.5743 98.6501 28.2483 99.4506 28.2483C100.166 28.2483 100.504 28.4043 100.939 28.6165C100.812 29.6366 99.942 30.3589 99.0019 30.3589ZM99.1983 24.3242C98.019 24.3242 96.797 24.8483 96.2925 26.0101L97.738 26.6188C98.047 26.0101 98.6222 25.811 99.2262 25.811C100.069 25.811 100.925 26.321 100.939 27.2283V27.3411C100.644 27.1711 100.013 26.9165 99.2402 26.9165C97.6821 26.9165 96.0952 27.7806 96.0952 29.3952C96.0952 30.8689 97.3731 31.8184 98.8046 31.8184C99.9001 31.8184 100.504 31.3225 100.883 30.7411H100.939V31.5912H102.511V27.3693C102.511 25.4146 101.065 24.3242 99.1983 24.3242ZM89.1321 25.9053H86.8155V22.1308H89.1321C90.3498 22.1308 91.0412 23.1482 91.0412 24.0176C91.0412 24.8712 90.3498 25.9053 89.1321 25.9053ZM89.0903 20.5982H85.1876V31.6097H86.8155V27.438H89.0903C90.8954 27.438 92.67 26.1184 92.67 24.0176C92.67 21.9168 90.8954 20.5982 89.0903 20.5982ZM67.8084 30.3606C66.6832 30.3606 65.7414 29.4102 65.7414 28.1048C65.7414 26.7852 66.6832 25.8198 67.8084 25.8198C68.9195 25.8198 69.7907 26.7852 69.7907 28.1048C69.7907 29.4102 68.9195 30.3606 67.8084 30.3606ZM69.679 25.1812H69.6222C69.2565 24.7417 68.5538 24.3444 67.6678 24.3444C65.8112 24.3444 64.1099 25.9898 64.1099 28.1048C64.1099 30.2047 65.8112 31.8369 67.6678 31.8369C68.5538 31.8369 69.2565 31.4397 69.6222 30.9851H69.679V31.5251C69.679 32.9582 68.9195 33.7246 67.6958 33.7246C66.6972 33.7246 66.0783 33.0005 65.8252 32.3901L64.405 32.9864C64.8126 33.98 65.8959 35.2 67.6958 35.2C69.6082 35.2 71.2257 34.0646 71.2257 31.2978V24.5708H69.679V25.1812ZM72.3509 31.6097H73.9823V20.5973H72.3509V31.6097ZM76.3862 27.977C76.3443 26.5298 77.4974 25.7916 78.3267 25.7916C78.9743 25.7916 79.5225 26.1176 79.705 26.5862L76.3862 27.977ZM81.449 26.728C81.14 25.8912 80.1973 24.3444 78.2708 24.3444C76.3583 24.3444 74.7696 25.8621 74.7696 28.0907C74.7696 30.1906 76.3443 31.8369 78.4532 31.8369C80.1554 31.8369 81.14 30.787 81.5476 30.1765L80.2819 29.3247C79.8603 29.9493 79.2834 30.3606 78.4532 30.3606C77.624 30.3606 77.033 29.9775 76.6533 29.2261L81.6175 27.1534L81.449 26.728ZM41.9001 25.4939V27.083H45.6684C45.5558 27.977 45.2608 28.6297 44.8112 29.0834C44.2622 29.6374 43.4041 30.2479 41.9001 30.2479C39.5791 30.2479 37.7653 28.3602 37.7653 26.0189C37.7653 23.6767 39.5791 21.7899 41.9001 21.7899C43.1519 21.7899 44.0658 22.2867 44.7405 22.9254L45.8517 21.804C44.909 20.8959 43.6581 20.2 41.9001 20.2C38.722 20.2 36.05 22.8117 36.05 26.0189C36.05 29.2261 38.722 31.8369 41.9001 31.8369C43.6154 31.8369 44.909 31.2688 45.9215 30.2047C46.9629 29.1547 47.2859 27.6793 47.2859 26.4866C47.2859 26.1176 47.2579 25.7776 47.2012 25.4939H41.9001ZM51.5709 30.3606C50.4457 30.3606 49.4751 29.4243 49.4751 28.0907C49.4751 26.7421 50.4457 25.8198 51.5709 25.8198C52.6952 25.8198 53.6658 26.7421 53.6658 28.0907C53.6658 29.4243 52.6952 30.3606 51.5709 30.3606ZM51.5709 24.3444C49.517 24.3444 47.8436 25.9194 47.8436 28.0907C47.8436 30.2479 49.517 31.8369 51.5709 31.8369C53.6239 31.8369 55.2972 30.2479 55.2972 28.0907C55.2972 25.9194 53.6239 24.3444 51.5709 24.3444ZM59.7001 30.3606C58.5749 30.3606 57.6043 29.4243 57.6043 28.0907C57.6043 26.7421 58.5749 25.8198 59.7001 25.8198C60.8252 25.8198 61.795 26.7421 61.795 28.0907C61.795 29.4243 60.8252 30.3606 59.7001 30.3606ZM59.7001 24.3444C57.6471 24.3444 55.9737 25.9194 55.9737 28.0907C55.9737 30.2479 57.6471 31.8369 59.7001 31.8369C61.7531 31.8369 63.4265 30.2479 63.4265 28.0907C63.4265 25.9194 61.7531 24.3444 59.7001 24.3444Z" fill="white"/>
</svg>
