<svg width="19" height="23" viewBox="0 0 19 23" fill="none" xmlns="http://www.w3.org/2000/svg">
<path d="M8.87101 11.0065L0.0810547 20.6721C0.0818803 20.6738 0.0818801 20.6764 0.0827057 20.6781C0.352671 21.7276 1.27732 22.5 2.37534 22.5C2.81455 22.5 3.22652 22.3768 3.57987 22.1613L3.60794 22.1442L13.5017 16.2294L8.87101 11.0065Z" fill="#EA4335"/>
<path d="M17.7633 9.36067L17.755 9.35469L13.4835 6.78946L8.67114 11.2262L13.5008 16.2284L17.7492 13.6888C18.4939 13.2714 19 12.4579 19 11.5205C19 10.5881 18.5013 9.77895 17.7633 9.36067Z" fill="#FBBC04"/>
<path d="M0.0809069 2.3272C0.0280697 2.52907 0 2.7412 0 2.96017V20.04C0 20.259 0.0280697 20.4711 0.0817325 20.6721L9.17303 11.2537L0.0809069 2.3272Z" fill="#4285F4"/>
<path d="M8.93599 11.4999L13.4849 6.78775L3.60274 0.851555C3.24361 0.628306 2.82421 0.500003 2.37592 0.500003C1.2779 0.500003 0.351601 1.2741 0.0816357 2.32448C0.0816357 2.32534 0.0808105 2.32619 0.0808105 2.32705L8.93599 11.4999Z" fill="#34A853"/>
</svg>
